<svg width="48" height="48" viewBox="0 0 48 48" fill="none" xmlns="http://www.w3.org/2000/svg">
<path d="M0 47.9999L3.37399 35.6739C1.292 32.0659 0.198 27.9759 0.2 23.7819C0.205999 10.67 10.876 0 23.9859 0C30.3479 0.002 36.3199 2.47999 40.8119 6.97598C45.3019 11.472 47.7739 17.448 47.7719 23.8039C47.7659 36.9179 37.0959 47.5879 23.9859 47.5879C20.0059 47.5859 16.084 46.5879 12.61 44.6919L0 47.9999ZM13.194 40.3859C16.546 42.3759 19.7459 43.5679 23.9779 43.5699C34.8739 43.5699 43.7499 34.7019 43.7559 23.7999C43.7599 12.876 34.9259 4.01999 23.9939 4.01599C13.09 4.01599 4.21999 12.884 4.21599 23.7839C4.21399 28.2339 5.51799 31.5659 7.70798 35.0519L5.70999 42.3479L13.194 40.3859ZM35.9679 29.4579C35.8199 29.2099 35.4239 29.0619 34.8279 28.7639C34.2339 28.4659 31.3119 27.0279 30.7659 26.8299C30.2219 26.6319 29.8259 26.5319 29.4279 27.1279C29.0319 27.7219 27.8919 29.0619 27.5459 29.4579C27.1999 29.8539 26.8519 29.9039 26.2579 29.6059C25.6639 29.3079 23.7479 28.6819 21.4779 26.6559C19.7119 25.0799 18.518 23.1339 18.172 22.5379C17.826 21.9439 18.136 21.6219 18.432 21.3259C18.7 21.0599 19.026 20.6319 19.324 20.2839C19.6259 19.9399 19.7239 19.692 19.9239 19.294C20.1219 18.898 20.0239 18.55 19.874 18.252C19.724 17.956 18.536 15.03 18.042 13.84C17.558 12.682 17.068 12.838 16.704 12.82L15.564 12.8C15.168 12.8 14.524 12.948 13.98 13.544C13.436 14.14 11.9 15.576 11.9 18.502C11.9 21.4279 14.03 24.2539 14.326 24.6499C14.624 25.0459 18.516 31.0499 24.4779 33.6239C25.8959 34.2359 27.0039 34.6019 27.8659 34.8759C29.2899 35.3279 30.5859 35.2639 31.6099 35.1119C32.7519 34.9419 35.1259 33.6739 35.6219 32.2859C36.1179 30.8959 36.1179 29.7059 35.9679 29.4579Z" fill="white"/>
</svg>
